<?xml version="1.0"?>
<svg xmlns="http://www.w3.org/2000/svg" viewBox="0 0 64 64" width="512" height="512"><g id="outline"><path d="M7,61a1,1,0,0,0,1,1H56a1,1,0,0,0,1-1V42a3,3,0,0,0-3-3H50.618L48.9,35.553A1,1,0,0,0,48,35H47V5a3,3,0,0,0-6,0V35H40a1,1,0,0,0-.9.553L37.382,39H37V34a1.006,1.006,0,0,0-.168-.555L31,24.7V19h3a1,1,0,0,0,1-1c0-4.125-4.743-7-9-7H16a1.817,1.817,0,0,0-.243.03l-4,1A1,1,0,0,0,11,13v4a1,1,0,0,0,.757.97L15,18.781V21a4,4,0,0,0,4,4V23a2,2,0,0,1-2-2V19h1.586L21,21.414V24.7l-5.832,8.748A1.006,1.006,0,0,0,15,34v7.691l-2.469-.625A2.919,2.919,0,1,0,11.4,46.792l3.6.757V50H8a1,1,0,0,0-1,1Zm8-44.281-2-.5V13.781l2-.5ZM15,60H13V56h2Zm4,0H17V56h2Zm4,0H21V56h2Zm4,0H25V56h2Zm8,0H33V51h2Zm4,0H37V51h2Zm4,0H41V51h2Zm4,0H45V51h2Zm4,0H49V51h2Zm4,0H53V51h2ZM43,5a1,1,0,0,1,2,0V22H43Zm0,19h2v4H43Zm0,6h2v5H43Zm-2.382,7h6.764l1,2H39.618ZM54,41a1,1,0,0,1,1,1v7H33V42a1,1,0,0,1,1-1ZM19.707,17.293A1,1,0,0,0,19,17H17V13h9c3.126,0,6.1,1.833,6.831,4H30a1,1,0,0,0-1,1v2H22.414ZM29,22v2H23V22ZM17,34.3,22.535,26h6.93L35,34.3V39H34a3,3,0,0,0-2.454,1.284,6.068,6.068,0,1,0-.366.729A2.972,2.972,0,0,0,31,42V60H29V50a1,1,0,0,0-.219-.625l-4-5a1,1,0,0,0-.535-.344L17,42.2ZM30,38a4,4,0,1,1-4-4A4,4,0,0,1,30,38ZM9,52H24a1,1,0,0,0,.832-1.555l-2-3a1,1,0,0,0-.626-.424L11.768,44.827a.92.92,0,0,1-.427-1.622.9.9,0,0,1,.735-.192l11.353,2.874L27,50.351V54H9Zm8-2V47.97L21.4,48.9l.736,1.1ZM9,56h2v4H9Z"/><rect x="51" y="43" width="2" height="2"/><rect x="47" y="43" width="2" height="2"/></g></svg>
